<?xml version="1.0" encoding="UTF-8" standalone="no"?>
<svg
   width="88"
   height="88"
   viewBox="0 0 88 88"
   fill="none"
   version="1.1"
   id="svg40"
   sodipodi:docname="logo-small.ea2bb02.svg"
   inkscape:version="1.1.1 (3bf5ae0d25, 2021-09-20, custom)"
   xmlns:inkscape="http://www.inkscape.org/namespaces/inkscape"
   xmlns:sodipodi="http://sodipodi.sourceforge.net/DTD/sodipodi-0.dtd"
   xmlns="http://www.w3.org/2000/svg"
   xmlns:svg="http://www.w3.org/2000/svg">
  <defs
     id="defs44" />
  <sodipodi:namedview
     id="namedview42"
     pagecolor="#ffffff"
     bordercolor="#666666"
     borderopacity="1.0"
     inkscape:pageshadow="2"
     inkscape:pageopacity="0.0"
     inkscape:pagecheckerboard="0"
     showgrid="false"
     height="86px"
     inkscape:zoom="9.9204545"
     inkscape:cx="28.426117"
     inkscape:cy="44"
     inkscape:window-width="3840"
     inkscape:window-height="2049"
     inkscape:window-x="3840"
     inkscape:window-y="0"
     inkscape:window-maximized="1"
     inkscape:current-layer="svg40" />
  <path
     d="M 85.6701,74.7275 H 0.00695801 v 5.3297 H 85.6701 Z"
     fill="#4e352e"
     id="path2" />
  <path
     d="m 21.8564,86.971 c -6.3905,0 -6.4209,-18.8821 0,-18.8821 6.4209,0 6.4209,18.8821 0,18.8821 z m 45.19,-17.0548 c -0.2003,-0.2775 -0.4603,-0.5065 -0.7608,-0.67 0.5173,2.1623 1.0347,7.3396 -1.0346,7.3396 -0.0609,-1.6446 -0.0305,-6.426 -1.4912,-7.7965 -0.9129,0.2741 -2.5866,1.0964 -3.4995,3.4414 -0.2877,0.9343 -0.4914,1.8923 -0.6086,2.8628 v 0.0914 c -0.6391,5.3601 0.9129,11.8165 4.6559,11.8165 3.8952,0 5.4167,-7.0351 4.5646,-12.4865 -0.1857,0.1606 -0.424,0.2473 -0.6694,0.2436 0.0608,-1.5532 -0.3956,-3.7459 -1.1564,-4.8423 z m 12.3245,-1.8273 c -6.4209,0 -6.3905,18.8821 0,18.8821 6.3905,0 6.3905,-18.8821 0,-18.8821 z m -68.6522,0 c -6.42097,0 -6.39054,18.8821 0,18.8821 6.3905,0 6.4209,-18.8821 0,-18.8821 z"
     fill="#e45325"
     id="path4" />
  <path
     d="m 13.0622,82.7679 c 0.711,0.0014 1.4001,-0.2464 1.9476,-0.7004 -0.6999,2.8018 -2.1302,4.9032 -4.2603,4.9032 -5.66019,0 -6.32967,-14.8011 -1.94761,-18.1816 -1.43026,5.6037 -0.03043,13.9788 4.26031,13.9788 z m 68.6219,0 c -4.2604,0 -5.6906,-8.4056 -4.2604,-13.9788 -4.382,3.3805 -3.7126,18.1816 1.9476,18.1816 2.1302,0 3.5604,-2.1014 4.2603,-4.9032 -0.5475,0.454 -1.2365,0.7018 -1.9475,0.7004 z M 60.2546,72.1787 c -1.7955,5.5428 -0.4565,14.8012 4.0169,14.8012 2.1301,0 3.5604,-2.1014 4.2603,-4.9033 -0.5553,0.4402 -1.2394,0.6863 -1.9476,0.7005 -4.0777,0 -5.5384,-7.6138 -4.4429,-13.1566 -0.8442,0.6705 -1.4952,1.5533 -1.8867,2.5582 z M 19.9031,68.7982 c -4.3821,3.3805 -3.7126,18.1817 1.9476,18.1817 2.1302,0 3.5604,-2.1014 4.2603,-4.9033 -0.5552,0.4402 -1.2393,0.6863 -1.9476,0.7005 -4.2542,-0.0092 -5.6845,-8.3843 -4.2542,-13.988 z"
     fill="#be3a26"
     id="path6" />
  <path
     d="m 37.1267,73.3576 c -0.3348,-0.0913 -4.3821,-10.0197 -4.3821,-10.0197 0,0 2.8301,-2.01 2.9822,-2.6191 -0.8216,-0.8223 -1.6128,-2.4668 -1.6128,-2.4668 0.0958,0.6815 0.2485,1.3539 0.4565,2.01 0,0 -1.2173,-0.5482 -1.6129,-1.5228 l -2.6475,3.7765 c 0,0 4.4734,10.2938 4.4429,10.8419 -1.6737,-0.3654 -3.2256,1.401 -3.2256,1.401 3.2561,0.335 2.191,5.9387 0,5.3296 1.5519,3.5633 3.4082,1.4619 3.5604,-4.5987 0.6999,0.4873 3.1648,3.9592 0.3043,4.5987 2.6475,4.8424 5.5384,-1.34 1.6128,-4.8728 2.0389,0.1523 5.2037,2.6191 2.7693,4.8728 0.8824,2.3146 2.617,1.0964 2.8909,-0.6395 0.4017,-3.2283 -2.611,-5.3601 -5.5384,-6.0911 z"
     fill="#2d1e1c"
     id="path8" />
  <path
     d="m 66.4379,67.5706 c -0.8216,-1.1878 -2.0389,-1.1878 -3.317,-0.4264 -2.7996,0.0914 -4.5342,-0.2741 -13.1766,0.8527 0,0 -0.0608,-0.67 -0.1217,-1.6141 -0.7303,0.0914 -1.4607,0.1218 -2.2215,0.1523 l 0.7912,4.02 c 2.3128,-0.0913 9.2815,-1.7359 12.6289,-1.7359 -1.2172,1.3096 -3.0735,4.8424 -1.339,6.3651 0.2739,-4.6292 2.891,-6.024 4.0778,-6.3955 1.1685,1.4131 1.4302,6.1823 1.4911,7.7964 2.0693,0 1.6128,-5.1469 1.0955,-7.3092 0.2635,0.1775 0.4994,0.3931 0.6999,0.6396 0.7608,1.0659 1.0286,3.3074 1.1564,4.8423 2.3736,0 0.8764,-7.1264 -1.765,-7.1873 z"
     fill="#2d1e1c"
     id="path10" />
  <path
     d="m 61.8732,58.2209 c -7.1817,3.6546 -16.3415,3.7459 -11.6551,-5.2992 -0.365,0.3885 -0.7104,0.795 -1.0347,1.2182 0.8521,-3.0151 3.4388,-5.7256 5.8428,-7.5833 -1.1822,0.5999 -2.321,1.2817 -3.4083,2.0405 3.9256,-5.5124 7.7904,-3.8069 9.6162,-11.6948 -1.4302,5.1165 -7.2121,8.5275 -12.355,9.8979 -4.8993,2.8019 -18.3803,-0.3959 -22.7319,-1.7664 3.0431,-0.2436 4.1691,-0.4263 4.1691,-0.4263 -3.1649,-0.9746 -6.6644,-2.8019 -10.1336,-4.0506 0.1522,2.4974 0.7304,5.086 1.7042,7.0961 -0.5174,-2.8019 0,-4.2028 0,-4.2028 0,0 1.0042,5.9387 3.3474,9.3801 -0.9129,-3.685 -0.5173,-4.9337 -0.5173,-4.9337 0,0 1.8867,7.096 4.6559,9.5324 -0.3657,-1.3067 -0.4691,-2.673 -0.3043,-4.02 0,0 0.5173,1.4009 3.7734,4.02 -0.8216,-1.9795 1.126,-1.2791 2.6475,0.8223 1.5216,2.1014 2.4345,2.2842 6.6035,1.4619 -3.0431,1.7359 1.8259,2.9541 4.9603,2.5582 -2.2519,1.4314 4.8689,1.0659 8.9163,0.0914 -2.1302,1.6445 5.2645,0.9441 6.4818,0.1218 0.3651,-0.2437 1.1868,-0.2437 2.0997,-0.0609 0.3652,-0.2437 0.6999,-0.4873 1.0346,-0.731 -2.2884,1.1573 1.6677,-6.2432 -3.7125,-3.4718 z"
     fill="#f2f2f2"
     id="path12" />
  <path
     d="m 54.448,65.2866 c -5.6906,2.1928 -14.333,1.2792 -21.5452,-1.6141 -0.0485,-0.1086 -0.0892,-0.2205 -0.1217,-0.335 0,0 2.8301,-2.01 2.9822,-2.6191 -0.8216,-0.8223 -1.6128,-2.4669 -1.6128,-2.4669 0.0958,0.6816 0.2485,1.354 0.4565,2.0101 0,0 -1.2173,-0.5482 -1.6129,-1.5228 l -2.6475,3.7764 c 0,0.0081 0.0032,0.0159 0.009,0.0216 0.0057,0.0057 0.0134,0.0089 0.0215,0.0089 -2.8301,-1.4009 -5.3255,-3.1064 -7.1817,-5.0251 0.426,1.1573 0.7912,2.2841 0.9738,2.8323 -1.2173,-1.5227 -6.1167,-6.5783 -7.973,-13.7352 0,1.1293 0.0609,2.2578 0.1826,3.3805 -1.1389,-2.79 -1.8469,-5.7373 -2.0997,-8.7406 -0.1291,0.9082 -0.2003,1.8237 -0.213,2.741 -0.7608,-2.1623 -1.0955,-5.0251 -1.1564,-7.157 v -2.01 c -0.2163,0.4531 -0.3994,0.9213 -0.5478,1.4009 -0.0304,0.1219 -0.0608,0.2132 -0.0913,0.335 v 0.0305 c -0.035,0.1189 -0.0555,0.2416 -0.0608,0.3655 -0.3151,-2.3184 -0.2637,-4.6719 0.1521,-6.9742 6.4514,3.5327 13.694,7.9792 18.1673,11.1465 0.7912,0.5482 -7.0295,-2.1014 -6.2383,-1.5532 6.6339,4.4769 13.5722,8.1315 20.267,7.9183 1.4831,-0.0604 2.9539,-0.2956 4.3821,-0.7005 -4.8994,2.8019 -18.3803,-0.3959 -22.732,-1.7664 3.0431,-0.2436 4.1691,-0.4263 4.1691,-0.4263 -3.1649,-0.9746 -6.6644,-2.8019 -10.1335,-4.0505 0.1521,2.4973 0.7303,5.0859 1.7041,7.096 -0.5173,-2.8019 0,-4.2028 0,-4.2028 0,0 1.0042,5.9387 3.3474,9.3801 -0.9129,-3.685 -0.5173,-4.9337 -0.5173,-4.9337 0,0 1.8867,7.096 4.6559,9.5324 -0.3657,-1.3067 -0.4691,-2.673 -0.3043,-4.02 0,0 0.5173,1.4009 3.7734,4.02 -0.8216,-1.9795 1.126,-1.2791 2.6475,0.8223 1.5216,2.1014 2.4345,2.2842 6.6036,1.4619 -3.0431,1.7359 1.8258,2.9541 4.9602,2.5582 -2.2519,1.4314 4.869,1.0659 8.9163,0.0914 -2.1302,1.6445 5.2645,0.9441 6.4818,0.1218 0.3651,-0.2437 1.1868,-0.2437 2.0997,-0.0609 -3.0127,2.01 -6.8165,3.5023 -11.7159,4.2028 -0.0609,-0.0305 1.0042,-0.5178 1.552,-1.3401 z M 39.4759,53.9269 c 1.5216,0.6396 3.4996,-0.2132 5.1124,-2.3755 -1.0711,0.9137 -3.2013,2.1319 -5.1124,2.3755 z m 0,4.8728 c 1.126,0.3655 2.6171,-0.1218 3.8039,-1.3705 -1.1585,0.7176 -2.4542,1.1844 -3.8039,1.3705 z M 27.334,46.9009 c -0.3652,1.6751 0.3651,3.7765 2.0388,5.421 -1.0132,-1.663 -1.7049,-3.502 -2.0388,-5.421 z"
     fill="#b3b3b3"
     id="path14" />
  <path
     d="m 1.19379,24.6689 c 1.55198,3.2587 6.11662,6.7306 10.74211,9.4107 -0.0235,-1.3695 0.0989,-2.7376 0.3652,-4.081 C 7.76688,27.4921 3.65261,25.4516 1.19379,24.6689 Z"
     fill="#2d1e1c"
     id="path16" />
  <path
     d="M 12.3922,2.15335 C 8.40572,-1.07489 6.1234,1.36152 7.37107,4.62021 6.15383,4.04156 -0.236673,-2.9631 0.00677518,1.45288 0.15893,3.98065 6.03211,11.5944 11.9357,19.1168 15.1464,17.6599 18.4627,16.4483 21.8562,15.4927 18.1741,9.52347 14.2789,3.6761 12.3922,2.15335 Z"
     fill="#2d1e1c"
     id="path18" />
  <path
     d="M 83.7834,45.643 C 87.3438,34.4355 83.2965,15.7666 48.2705,16.8021 31.3813,8.88376 13.0314,17.8985 1.19379,24.6595 7.09739,26.5781 22.8606,35.7451 30.4684,41.1052 31.2596,41.6534 23.4388,39.0038 24.23,39.552 c 6.634,4.4769 13.5722,8.1315 20.2671,7.9183 5.9644,-0.1827 16.0066,-4.3855 16.9804,-11.8775 3.0127,0.5787 4.1386,6.487 3.8343,6.9438 0.3956,-0.4264 0.8521,-4.9337 2.9823,-6.0301 0,0 -0.8825,2.5277 -0.6391,3.1978 1.126,-3.5633 9.8292,-4.1115 8.4294,4.69 0.3956,-0.3959 1.1259,-3.015 1.1259,-3.015 -1.0346,6.5174 1.4912,9.1365 3.9561,9.5629 1.1563,-0.2132 3.4082,-4.3551 3.6821,-6.9438 -0.2835,0.5914 -0.6414,1.1441 -1.0651,1.6446 z"
     fill="#4e352e"
     id="path20" />
  <path
     d="M 13.9443,20.1003 C 17.1396,18.1208 28.3078,13.248 39.8715,15.5321 28.4903,14.923 13.9443,20.1003 13.9443,20.1003 Z m 34.3262,-3.2891 c -0.8603,-0.4172 -1.7443,-0.7833 -2.6475,-1.0964 3.5644,2.338 6.7812,5.1677 9.5553,8.4056 -0.9738,-1.7055 -2.1302,-4.751 -4.1995,-7.3397 -0.8825,-0.0091 -1.7954,-0.0091 -2.7083,0.0214 z"
     fill="#2d1e1c"
     id="path22" />
  <path
     d="M 51.2224,42.9931 C 38.198,44.7595 32.5378,41.0136 33.0552,40.4654 c 5.8427,3.1064 16.4327,2.4059 18.1672,2.5277 z M 29.6165,34.1612 c -0.5174,0.5177 5.1428,4.2941 18.1672,2.5277 -1.7345,-0.1218 -12.2941,0.5787 -18.1672,-2.5277 z m 28.3008,2.8018 c 0.6086,0.2437 3.4386,-2.7105 -0.2739,-9.1669 0.1217,0.8832 2.404,6.1214 0.2739,9.1669 z M 81.2578,31.8161 C 75.2325,22.4664 65.5859,21.6442 63.4253,22.2533 c 11.7402,1.5836 16.4935,8.8106 17.8264,9.5628 z"
     fill="#6d4d42"
     id="path24" />
  <path
     d="m 80.284,52.5867 c 0.5782,-0.6396 2.0085,-1.1878 2.5867,-1.4619 -0.3348,-0.0304 -1.3086,0.2437 -2.2519,0.5482 0.1826,-0.2436 0.3652,-0.4568 0.5477,-0.7309 -2.4953,-0.4264 -4.9906,-3.0455 -3.956,-9.5629 0,0 -0.7608,2.6192 -1.1259,3.0151 1.3998,-8.832 -7.3035,-8.2533 -8.4294,-4.6901 -0.2435,-0.67 0.639,-3.1978 0.639,-3.1978 -2.1301,1.0964 -2.5866,5.6038 -2.9822,6.0301 0.3043,-0.4568 -0.8521,-6.3651 -3.8343,-6.9437 -0.0621,0.4321 -0.1536,0.8595 -0.2739,1.2791 -1.8258,7.8878 -5.6906,6.1824 -9.6162,11.6947 1.0873,-0.7587 2.2261,-1.4406 3.4083,-2.0405 -2.4345,1.8578 -4.9907,4.5683 -5.8427,7.5833 0.3242,-0.4231 0.6696,-0.8297 1.0346,-1.2182 -4.6559,9.0452 4.4734,8.9538 11.6551,5.2992 5.4167,-2.7714 1.3998,4.6901 3.7126,3.4414 3.3169,-1.7664 4.808,-4.5987 5.6905,-6.1823 -0.6086,1.3095 -1.065,2.2536 -1.065,2.2536 2.1301,-1.6141 2.9213,-4.416 4.6255,-4.751 -0.5174,-1.2182 -0.7608,-2.1623 -0.3956,-2.4059 0.5477,-0.335 2.2823,1.34 3.0126,1.7359 0.1826,-0.1218 0.1522,-0.5177 0.1522,-0.5177 0.3615,0.5345 0.8273,0.9903 1.3694,1.34 0.1521,-0.3654 0.3651,-0.1523 0.3956,-0.1523 0.6418,0.0148 1.2656,0.2158 1.7954,0.5787 -0.2348,-0.3559 -0.5221,-0.6742 -0.8521,-0.9441 z"
     fill="#e45325"
     id="path26" />
  <path
     d="m 74.8369,39.8568 c -2.2519,-2.1318 -4.8994,-1.2791 -6.0558,0.1828 0.9069,-2.7105 4.8386,-3.076 6.0558,-0.1828 z m -5.0211,15.3494 c -0.3652,1.0355 -3.0735,4.2637 -4.8994,4.4464 0.8156,0.4568 4.7472,-1.7055 4.8994,-4.4464 z m -11.442,-5.8169 c -0.7304,0.7309 -2.3432,1.9186 -3.8648,2.1014 0.4565,0.2832 2.5562,-0.2437 3.8648,-2.1014 z m -5.9949,5.6037 c -0.3956,0.5177 -1.3086,1.2791 -2.3737,1.1877 0.3652,0.3351 1.765,0.2437 2.3737,-1.1877 z m 7.3643,-1.0659 c -0.3956,0.5177 -1.3086,1.2791 -2.3737,1.1877 0.3652,0.335 1.765,0.2437 2.3737,-1.1877 z m 7.8511,-0.3959 c -0.3956,0.5177 -1.3085,1.2791 -2.3736,1.1877 0.3652,0.335 1.765,0.2436 2.3736,-1.1877 z m -7.0904,2.4973 c -0.5173,1.0659 -5.2341,3.9896 -7.3338,3.2587 0.852,0.9745 6.8469,0 7.3338,-3.2496 z"
     fill="#be3a26"
     id="path28" />
  <path
     d="m 74.5933,44.9429 c -1.7041,1.0355 -3.743,1.1269 -5.2341,-0.0913 0.3043,0.9745 3.2865,2.1927 5.2341,0.0913 z"
     fill="#ed6d23"
     id="path30" />
  <path
     d="M 13.4879,19.491 C 7.09743,12.0905 0.950378,2.28393 0.950378,0.852547 0.950378,0.84341 5.8802,8.76172 13.4879,19.491 Z m 3.1953,-4.8423 C 16.6223,13.735 12.4533,7.64402 8.28424,3.10622 13.3662,9.74542 16.6832,14.6395 16.6832,14.6395 Z"
     fill="#4e352e"
     id="path32" />
  <path
     d="m 78.9753,53.1354 c -0.5556,-0.3324 -1.0248,-0.7916 -1.3694,-1.34 0,0 0.0304,0.3959 -0.1522,0.5177 -0.7303,-0.3959 -2.4649,-2.0709 -3.0126,-1.7359 -0.3652,0.2436 -0.1218,1.1878 0.3956,2.406 0.7303,1.7663 2.0084,4.1418 2.7083,5.756 0.2739,0.6395 1.978,2.8627 1.8259,-5.756 -0.0304,-0.0305 -0.2496,-0.2437 -0.3956,0.1522 z"
     fill="#000000"
     id="path34" />
  <path
     d="m 71.824,45.4911 c 1.8487,0 3.3474,-1.4998 3.3474,-3.35 0,-1.8502 -1.4987,-3.3501 -3.3474,-3.3501 -1.8487,0 -3.3474,1.4999 -3.3474,3.3501 0,1.8502 1.4987,3.35 3.3474,3.35 z"
     fill="#000000"
     id="path36" />
  <path
     d="m 72.8891,40.2008 c 0.0609,0.4263 -0.426,0.8527 -1.0651,0.9441 -0.639,0.0913 -1.2476,-0.1828 -1.3085,-0.5787 -0.0609,-0.3959 0.426,-0.8527 1.0651,-0.9441 0.639,-0.0914 1.2172,0.1431 1.3085,0.5787 z m 0.9434,3.7155 c -0.3787,0.4487 -0.9098,0.7416 -1.4911,0.8223 -0.0609,-0.061 -0.1522,-0.061 -0.2739,-0.061 -0.0794,0.0052 -0.1546,0.0374 -0.213,0.0914 -0.6482,0.0138 -1.2885,-0.1438 -1.8563,-0.4568 0.2375,0.2393 0.523,0.4256 0.8378,0.5463 0.3147,0.1207 0.6515,0.1733 0.988,0.1542 0.0871,0.0661 0.1952,0.0986 0.3043,0.0913 0.1218,-0.0304 0.2131,-0.0609 0.2435,-0.1523 0.7912,-0.1827 1.4302,-0.5877 1.4607,-1.0446 z"
     fill="#ffffff"
     id="path38" />
</svg>
